<?xml version="1.0" encoding="UTF-8"?>
<svg id="Layer_1" xmlns="http://www.w3.org/2000/svg" version="1.1" viewBox="0 0 512 512">
  <!-- Generator: Adobe Illustrator 29.1.0, SVG Export Plug-In . SVG Version: 2.1.0 Build 142)  -->
  <defs>
    <style>
      .st0 {
        fill: #536512;
      }
    </style>
  </defs>
  <path class="st0" d="M255.21,1.09c19.05-.46,37.74,17.59,54.75,24.79,23.36,9.89,56.4-2.84,76.93,12.21,13.69,10.03,19.54,32.37,29.01,46.3,12.26,18.04,34.97,21.84,50.65,35.65,21.3,18.77,10.04,45.65,13.89,69.96,4.24,26.76,34.36,44.13,28.24,73.53-4.29,20.62-22.35,35.92-26.94,56.91-4.16,19.01,2.18,40.65-4.82,59.09-7.93,20.88-35.52,26.11-52.02,38.34-21.64,16.06-23.16,52.94-51.16,61.18-16.21,4.77-34.59.5-51.44,2.7-30.89,4.03-46.9,40.89-82.35,26.07-15.28-6.38-27.94-20.59-44-24.79-19.19-5.01-40.1,1.71-58.79-4.3-22.94-7.38-28.25-35.69-41.67-52.77-16.32-20.76-53.16-21.34-61.43-49.29-4.98-16.82-.38-35.31-3.17-52.59-5.12-31.75-39.87-50.93-24.38-86.08,6.63-15.03,19.71-27.26,23.97-43.6,5.11-19.58-2.78-42.06,4.93-61.02,7.95-19.56,34.83-26.2,50.51-38.22,22.94-17.59,21.28-56.96,54.09-63.55,19.3-3.87,42.34,1.85,60.73-5.21S235.7,1.56,255.21,1.09ZM75.67,269.53c-1.95,2.07-8.28.86-10.79.22-5.42-1.38-10.05-4.56-14.48-7.82l-11.88,13.81c-.52,1,3.43,3.63,4.34,4.23,16.89,11.25,55.07,12.22,55.35-14.61.17-15.93-16.51-16-25.96-21.7-1.57-.95-2.7-2.53-.97-3.99,2.87-2.41,12.27.52,15.5,2.08,1.26.61,5.96,4.05,6.67,3.84,1.29-2.28,11.49-12.63,11.62-14.09.06-.71-3.92-3.25-4.72-3.72-11.05-6.51-28.34-8.22-39.89-2.19-13.23,6.91-17.41,24.48-2.84,32.71,4.85,2.74,13.55,4.57,17.34,7.49,1.19.92,1.91,2.49.73,3.74ZM102.64,286.32h22.59c1.65-1.18,4.34-7.63,5.78-8.06l22.11-.08.81,8.14h22.39l-9.96-63.53-20.57.23c-13.41,19.79-27.21,39.32-40.63,59.1-.35.51-2.81,3.95-2.52,4.2ZM246.33,286.32h23l5.17-8.06,22.05-.03c.34.08.51.28.61.61.58,1.86.14,5.41.87,7.47h22.39l-9.6-63.52h-19.93s-1.23.4-1.23.4l-43.32,63.12ZM225.17,223.23h-21.17l-16.69,63.09h50.07l4.48-17.91h-28.49l11.8-45.18ZM331.4,286.32c20.25-.96,44.24,4.44,60.25-11.18,13.35-13.03,15.98-39.54-3.12-48.59-11.93-5.66-27.52-2.51-40.39-3.26l-16.75,63.03ZM433.58,223.23h-22.39l12.19,38.9-6.08,24.19h21.17l5.84-21.64c10.61-12.81,22-25.01,32.63-37.79.88-1.06,2.17-2.4,2.64-3.67h-24.63l-16.48,20.76-4.89-20.76Z"/>
  <path class="st0" d="M357.46,268.01l6.9-26.28c8.48-.92,16.99,1.21,16.32,11.44-.5,7.74-8.39,14.84-16.09,14.84h-7.12Z"/>
  <path class="st0" d="M284.59,263.12c-.41-.38,1.15-2.69,1.46-3.22,1.97-3.34,4.72-7.86,7-10.91.3-.41.46-1.03,1.11-.93l1.43,15.06h-10.99Z"/>
  <polygon class="st0" points="151.9 263.12 140.5 263.12 150.26 247.65 151.9 263.12"/>
</svg>